# Tiled2Unity generated file. Do not modify by hand.
# Wavefront file for 'Lake_mesh_0002.obj'

# Vertices (Count = 376)
v -24 -1 0
v -25 -1 0
v -25 0 0
v -24 0 0
v -23 -1 0
v -24 -1 0
v -24 0 0
v -23 0 0
v -22 -1 0
v -23 -1 0
v -23 0 0
v -22 0 0
v -21 -1 0
v -22 -1 0
v -22 0 0
v -21 0 0
v -20 -1 0
v -21 -1 0
v -21 0 0
v -20 0 0
v -19 -1 0
v -20 -1 0
v -20 0 0
v -19 0 0
v -18 -1 0
v -19 -1 0
v -19 0 0
v -18 0 0
v -17 -1 0
v -18 -1 0
v -18 0 0
v -17 0 0
v -16 -1 0
v -17 -1 0
v -17 0 0
v -16 0 0
v -15 -1 0
v -16 -1 0
v -16 0 0
v -15 0 0
v -14 -1 0
v -15 -1 0
v -15 0 0
v -14 0 0
v -13 -1 0
v -14 -1 0
v -14 0 0
v -13 0 0
v -12 -1 0
v -13 -1 0
v -13 0 0
v -12 0 0
v -11 -1 0
v -12 -1 0
v -12 0 0
v -11 0 0
v -10 -1 0
v -11 -1 0
v -11 0 0
v -10 0 0
v -9 -1 0
v -10 -1 0
v -10 0 0
v -9 0 0
v -8 -1 0
v -9 -1 0
v -9 0 0
v -8 0 0
v -7 -1 0
v -8 -1 0
v -8 0 0
v -7 0 0
v -6 -1 0
v -7 -1 0
v -7 0 0
v -6 0 0
v -5 -1 0
v -6 -1 0
v -6 0 0
v -5 0 0
v -4 -1 0
v -5 -1 0
v -5 0 0
v -4 0 0
v -3 -1 0
v -4 -1 0
v -4 0 0
v -3 0 0
v -2 -1 0
v -3 -1 0
v -3 0 0
v -2 0 0
v -1 -1 0
v -2 -1 0
v -2 0 0
v -1 0 0
v 0 -1 0
v -1 -1 0
v -1 0 0
v 0 0 0
v -24 -2 0
v -25 -2 0
v -25 -1 0
v -24 -1 0
v 0 -2 0
v -1 -2 0
v -1 -1 0
v 0 -1 0
v -24 -3 0
v -25 -3 0
v -25 -2 0
v -24 -2 0
v 0 -3 0
v -1 -3 0
v -1 -2 0
v 0 -2 0
v -24 -4 0
v -25 -4 0
v -25 -3 0
v -24 -3 0
v 0 -4 0
v -1 -4 0
v -1 -3 0
v 0 -3 0
v -24 -5 0
v -25 -5 0
v -25 -4 0
v -24 -4 0
v 0 -5 0
v -1 -5 0
v -1 -4 0
v 0 -4 0
v -24 -6 0
v -25 -6 0
v -25 -5 0
v -24 -5 0
v 0 -6 0
v -1 -6 0
v -1 -5 0
v 0 -5 0
v -24 -7 0
v -25 -7 0
v -25 -6 0
v -24 -6 0
v 0 -7 0
v -1 -7 0
v -1 -6 0
v 0 -6 0
v -24 -8 0
v -25 -8 0
v -25 -7 0
v -24 -7 0
v 0 -8 0
v -1 -8 0
v -1 -7 0
v 0 -7 0
v -24 -9 0
v -25 -9 0
v -25 -8 0
v -24 -8 0
v 0 -9 0
v -1 -9 0
v -1 -8 0
v 0 -8 0
v -24 -10 0
v -25 -10 0
v -25 -9 0
v -24 -9 0
v 0 -10 0
v -1 -10 0
v -1 -9 0
v 0 -9 0
v -24 -11 0
v -25 -11 0
v -25 -10 0
v -24 -10 0
v 0 -11 0
v -1 -11 0
v -1 -10 0
v 0 -10 0
v -24 -12 0
v -25 -12 0
v -25 -11 0
v -24 -11 0
v 0 -12 0
v -1 -12 0
v -1 -11 0
v 0 -11 0
v -24 -13 0
v -25 -13 0
v -25 -12 0
v -24 -12 0
v 0 -13 0
v -1 -13 0
v -1 -12 0
v 0 -12 0
v -24 -14 0
v -25 -14 0
v -25 -13 0
v -24 -13 0
v 0 -14 0
v -1 -14 0
v -1 -13 0
v 0 -13 0
v -24 -15 0
v -25 -15 0
v -25 -14 0
v -24 -14 0
v 0 -15 0
v -1 -15 0
v -1 -14 0
v 0 -14 0
v -24 -16 0
v -25 -16 0
v -25 -15 0
v -24 -15 0
v 0 -16 0
v -1 -16 0
v -1 -15 0
v 0 -15 0
v -24 -17 0
v -25 -17 0
v -25 -16 0
v -24 -16 0
v 0 -17 0
v -1 -17 0
v -1 -16 0
v 0 -16 0
v -24 -18 0
v -25 -18 0
v -25 -17 0
v -24 -17 0
v 0 -18 0
v -1 -18 0
v -1 -17 0
v 0 -17 0
v -24 -19 0
v -25 -19 0
v -25 -18 0
v -24 -18 0
v 0 -19 0
v -1 -19 0
v -1 -18 0
v 0 -18 0
v -24 -20 0
v -25 -20 0
v -25 -19 0
v -24 -19 0
v 0 -20 0
v -1 -20 0
v -1 -19 0
v 0 -19 0
v -24 -21 0
v -25 -21 0
v -25 -20 0
v -24 -20 0
v 0 -21 0
v -1 -21 0
v -1 -20 0
v 0 -20 0
v -24 -22 0
v -25 -22 0
v -25 -21 0
v -24 -21 0
v 0 -22 0
v -1 -22 0
v -1 -21 0
v 0 -21 0
v -24 -23 0
v -25 -23 0
v -25 -22 0
v -24 -22 0
v 0 -23 0
v -1 -23 0
v -1 -22 0
v 0 -22 0
v -24 -24 0
v -25 -24 0
v -25 -23 0
v -24 -23 0
v 0 -24 0
v -1 -24 0
v -1 -23 0
v 0 -23 0
v -24 -25 0
v -25 -25 0
v -25 -24 0
v -24 -24 0
v -23 -25 0
v -24 -25 0
v -24 -24 0
v -23 -24 0
v -22 -25 0
v -23 -25 0
v -23 -24 0
v -22 -24 0
v -21 -25 0
v -22 -25 0
v -22 -24 0
v -21 -24 0
v -20 -25 0
v -21 -25 0
v -21 -24 0
v -20 -24 0
v -19 -25 0
v -20 -25 0
v -20 -24 0
v -19 -24 0
v -18 -25 0
v -19 -25 0
v -19 -24 0
v -18 -24 0
v -17 -25 0
v -18 -25 0
v -18 -24 0
v -17 -24 0
v -14 -25 0
v -15 -25 0
v -15 -24 0
v -14 -24 0
v -13 -25 0
v -14 -25 0
v -14 -24 0
v -13 -24 0
v -12 -25 0
v -13 -25 0
v -13 -24 0
v -12 -24 0
v -11 -25 0
v -12 -25 0
v -12 -24 0
v -11 -24 0
v -10 -25 0
v -11 -25 0
v -11 -24 0
v -10 -24 0
v -9 -25 0
v -10 -25 0
v -10 -24 0
v -9 -24 0
v -8 -25 0
v -9 -25 0
v -9 -24 0
v -8 -24 0
v -7 -25 0
v -8 -25 0
v -8 -24 0
v -7 -24 0
v -6 -25 0
v -7 -25 0
v -7 -24 0
v -6 -24 0
v -5 -25 0
v -6 -25 0
v -6 -24 0
v -5 -24 0
v -4 -25 0
v -5 -25 0
v -5 -24 0
v -4 -24 0
v -3 -25 0
v -4 -25 0
v -4 -24 0
v -3 -24 0
v -2 -25 0
v -3 -25 0
v -3 -24 0
v -2 -24 0
v -1 -25 0
v -2 -25 0
v -2 -24 0
v -1 -24 0
v 0 -25 0
v -1 -25 0
v -1 -24 0
v 0 -24 0

# Texture cooridinates (Count = 20)
vt 0.075 0.6111111
vt 0.1 0.6111111
vt 0.1 0.6388889
vt 0.075 0.6388889
vt 0.05 0.6111111
vt 0.05 0.6388889
vt 0.025 0.6111111
vt 0.025 0.6388889
vt 0.075 0.5833334
vt 0.1 0.5833334
vt 0.025 0.5833334
vt 0.05 0.5833334
vt 0.075 0.5555556
vt 0.1 0.5555556
vt 0.05 0.5555556
vt 0 0.5277778
vt 0.025 0.5277778
vt 0.025 0.5555556
vt 0 0.5555556
vt 0.05 0.5277778

# Normal
vn 0 0 -1

# Mesh description
g Lake_mesh_0002

# Faces
f 1/1/1 2/2/1 3/3/1 4/4/1
f 5/5/1 6/1/1 7/4/1 8/6/1
f 9/5/1 10/1/1 11/4/1 12/6/1
f 13/5/1 14/1/1 15/4/1 16/6/1
f 17/5/1 18/1/1 19/4/1 20/6/1
f 21/5/1 22/1/1 23/4/1 24/6/1
f 25/5/1 26/1/1 27/4/1 28/6/1
f 29/5/1 30/1/1 31/4/1 32/6/1
f 33/5/1 34/1/1 35/4/1 36/6/1
f 37/5/1 38/1/1 39/4/1 40/6/1
f 41/5/1 42/1/1 43/4/1 44/6/1
f 45/5/1 46/1/1 47/4/1 48/6/1
f 49/5/1 50/1/1 51/4/1 52/6/1
f 53/5/1 54/1/1 55/4/1 56/6/1
f 57/5/1 58/1/1 59/4/1 60/6/1
f 61/5/1 62/1/1 63/4/1 64/6/1
f 65/5/1 66/1/1 67/4/1 68/6/1
f 69/5/1 70/1/1 71/4/1 72/6/1
f 73/5/1 74/1/1 75/4/1 76/6/1
f 77/5/1 78/1/1 79/4/1 80/6/1
f 81/5/1 82/1/1 83/4/1 84/6/1
f 85/5/1 86/1/1 87/4/1 88/6/1
f 89/5/1 90/1/1 91/4/1 92/6/1
f 93/5/1 94/1/1 95/4/1 96/6/1
f 97/7/1 98/5/1 99/6/1 100/8/1
f 101/9/1 102/10/1 103/2/1 104/1/1
f 105/11/1 106/12/1 107/5/1 108/7/1
f 109/9/1 110/10/1 111/2/1 112/1/1
f 113/11/1 114/12/1 115/5/1 116/7/1
f 117/9/1 118/10/1 119/2/1 120/1/1
f 121/11/1 122/12/1 123/5/1 124/7/1
f 125/9/1 126/10/1 127/2/1 128/1/1
f 129/11/1 130/12/1 131/5/1 132/7/1
f 133/9/1 134/10/1 135/2/1 136/1/1
f 137/11/1 138/12/1 139/5/1 140/7/1
f 141/9/1 142/10/1 143/2/1 144/1/1
f 145/11/1 146/12/1 147/5/1 148/7/1
f 149/9/1 150/10/1 151/2/1 152/1/1
f 153/11/1 154/12/1 155/5/1 156/7/1
f 157/9/1 158/10/1 159/2/1 160/1/1
f 161/11/1 162/12/1 163/5/1 164/7/1
f 165/9/1 166/10/1 167/2/1 168/1/1
f 169/11/1 170/12/1 171/5/1 172/7/1
f 173/9/1 174/10/1 175/2/1 176/1/1
f 177/11/1 178/12/1 179/5/1 180/7/1
f 181/9/1 182/10/1 183/2/1 184/1/1
f 185/11/1 186/12/1 187/5/1 188/7/1
f 189/9/1 190/10/1 191/2/1 192/1/1
f 193/11/1 194/12/1 195/5/1 196/7/1
f 197/9/1 198/10/1 199/2/1 200/1/1
f 201/11/1 202/12/1 203/5/1 204/7/1
f 205/9/1 206/10/1 207/2/1 208/1/1
f 209/11/1 210/12/1 211/5/1 212/7/1
f 213/9/1 214/10/1 215/2/1 216/1/1
f 217/11/1 218/12/1 219/5/1 220/7/1
f 221/9/1 222/10/1 223/2/1 224/1/1
f 225/11/1 226/12/1 227/5/1 228/7/1
f 229/9/1 230/10/1 231/2/1 232/1/1
f 233/11/1 234/12/1 235/5/1 236/7/1
f 237/9/1 238/10/1 239/2/1 240/1/1
f 241/11/1 242/12/1 243/5/1 244/7/1
f 245/9/1 246/10/1 247/2/1 248/1/1
f 249/11/1 250/12/1 251/5/1 252/7/1
f 253/9/1 254/10/1 255/2/1 256/1/1
f 257/11/1 258/12/1 259/5/1 260/7/1
f 261/9/1 262/10/1 263/2/1 264/1/1
f 265/11/1 266/12/1 267/5/1 268/7/1
f 269/9/1 270/10/1 271/2/1 272/1/1
f 273/11/1 274/12/1 275/5/1 276/7/1
f 277/9/1 278/10/1 279/2/1 280/1/1
f 281/11/1 282/12/1 283/5/1 284/7/1
f 285/13/1 286/14/1 287/10/1 288/9/1
f 289/15/1 290/13/1 291/9/1 292/12/1
f 293/15/1 294/13/1 295/9/1 296/12/1
f 297/15/1 298/13/1 299/9/1 300/12/1
f 301/15/1 302/13/1 303/9/1 304/12/1
f 305/15/1 306/13/1 307/9/1 308/12/1
f 309/15/1 310/13/1 311/9/1 312/12/1
f 313/16/1 314/17/1 315/18/1 316/19/1
f 317/17/1 318/20/1 319/15/1 320/18/1
f 321/15/1 322/13/1 323/9/1 324/12/1
f 325/15/1 326/13/1 327/9/1 328/12/1
f 329/15/1 330/13/1 331/9/1 332/12/1
f 333/15/1 334/13/1 335/9/1 336/12/1
f 337/15/1 338/13/1 339/9/1 340/12/1
f 341/15/1 342/13/1 343/9/1 344/12/1
f 345/15/1 346/13/1 347/9/1 348/12/1
f 349/15/1 350/13/1 351/9/1 352/12/1
f 353/15/1 354/13/1 355/9/1 356/12/1
f 357/15/1 358/13/1 359/9/1 360/12/1
f 361/15/1 362/13/1 363/9/1 364/12/1
f 365/15/1 366/13/1 367/9/1 368/12/1
f 369/15/1 370/13/1 371/9/1 372/12/1
f 373/18/1 374/15/1 375/12/1 376/11/1

