# Tiled2Unity generated file. Do not modify by hand.
# Wavefront file for 'Overworld_mesh_0002.obj'

# Vertices (Count = 568)
v -24 -1 0
v -25 -1 0
v -25 0 0
v -24 0 0
v -23 -1 0
v -24 -1 0
v -24 0 0
v -23 0 0
v -22 -1 0
v -23 -1 0
v -23 0 0
v -22 0 0
v -21 -1 0
v -22 -1 0
v -22 0 0
v -21 0 0
v -20 -1 0
v -21 -1 0
v -21 0 0
v -20 0 0
v -19 -1 0
v -20 -1 0
v -20 0 0
v -19 0 0
v -18 -1 0
v -19 -1 0
v -19 0 0
v -18 0 0
v -17 -1 0
v -18 -1 0
v -18 0 0
v -17 0 0
v -14 -1 0
v -15 -1 0
v -15 0 0
v -14 0 0
v -13 -1 0
v -14 -1 0
v -14 0 0
v -13 0 0
v -12 -1 0
v -13 -1 0
v -13 0 0
v -12 0 0
v -11 -1 0
v -12 -1 0
v -12 0 0
v -11 0 0
v -10 -1 0
v -11 -1 0
v -11 0 0
v -10 0 0
v -9 -1 0
v -10 -1 0
v -10 0 0
v -9 0 0
v -8 -1 0
v -9 -1 0
v -9 0 0
v -8 0 0
v -7 -1 0
v -8 -1 0
v -8 0 0
v -7 0 0
v -6 -1 0
v -7 -1 0
v -7 0 0
v -6 0 0
v -5 -1 0
v -6 -1 0
v -6 0 0
v -5 0 0
v -4 -1 0
v -5 -1 0
v -5 0 0
v -4 0 0
v -3 -1 0
v -4 -1 0
v -4 0 0
v -3 0 0
v -2 -1 0
v -3 -1 0
v -3 0 0
v -2 0 0
v -1 -1 0
v -2 -1 0
v -2 0 0
v -1 0 0
v 0 -1 0
v -1 -1 0
v -1 0 0
v 0 0 0
v -24 -2 0
v -25 -2 0
v -25 -1 0
v -24 -1 0
v 0 -2 0
v -1 -2 0
v -1 -1 0
v 0 -1 0
v -24 -3 0
v -25 -3 0
v -25 -2 0
v -24 -2 0
v 0 -3 0
v -1 -3 0
v -1 -2 0
v 0 -2 0
v -24 -4 0
v -25 -4 0
v -25 -3 0
v -24 -3 0
v 0 -4 0
v -1 -4 0
v -1 -3 0
v 0 -3 0
v -24 -5 0
v -25 -5 0
v -25 -4 0
v -24 -4 0
v -3 -5 0
v -4 -5 0
v -4 -4 0
v -3 -4 0
v -2 -5 0
v -3 -5 0
v -3 -4 0
v -2 -4 0
v 0 -5 0
v -1 -5 0
v -1 -4 0
v 0 -4 0
v -24 -6 0
v -25 -6 0
v -25 -5 0
v -24 -5 0
v -3 -6 0
v -4 -6 0
v -4 -5 0
v -3 -5 0
v -2 -6 0
v -3 -6 0
v -3 -5 0
v -2 -5 0
v 0 -6 0
v -1 -6 0
v -1 -5 0
v 0 -5 0
v -24 -7 0
v -25 -7 0
v -25 -6 0
v -24 -6 0
v -20 -7 0
v -21 -7 0
v -21 -6 0
v -20 -6 0
v -19 -7 0
v -20 -7 0
v -20 -6 0
v -19 -6 0
v -9 -7 0
v -10 -7 0
v -10 -6 0
v -9 -6 0
v -8 -7 0
v -9 -7 0
v -9 -6 0
v -8 -6 0
v -7 -7 0
v -8 -7 0
v -8 -6 0
v -7 -6 0
v -6 -7 0
v -7 -7 0
v -7 -6 0
v -6 -6 0
v -5 -7 0
v -6 -7 0
v -6 -6 0
v -5 -6 0
v 0 -7 0
v -1 -7 0
v -1 -6 0
v 0 -6 0
v -24 -8 0
v -25 -8 0
v -25 -7 0
v -24 -7 0
v -20 -8 0
v -21 -8 0
v -21 -7 0
v -20 -7 0
v -19 -8 0
v -20 -8 0
v -20 -7 0
v -19 -7 0
v -9 -8 0
v -10 -8 0
v -10 -7 0
v -9 -7 0
v -8 -8 0
v -9 -8 0
v -9 -7 0
v -8 -7 0
v -7 -8 0
v -8 -8 0
v -8 -7 0
v -7 -7 0
v -6 -8 0
v -7 -8 0
v -7 -7 0
v -6 -7 0
v -5 -8 0
v -6 -8 0
v -6 -7 0
v -5 -7 0
v 0 -8 0
v -1 -8 0
v -1 -7 0
v 0 -7 0
v -24 -9 0
v -25 -9 0
v -25 -8 0
v -24 -8 0
v -9 -9 0
v -10 -9 0
v -10 -8 0
v -9 -8 0
v -8 -9 0
v -9 -9 0
v -9 -8 0
v -8 -8 0
v -7 -9 0
v -8 -9 0
v -8 -8 0
v -7 -8 0
v -6 -9 0
v -7 -9 0
v -7 -8 0
v -6 -8 0
v -5 -9 0
v -6 -9 0
v -6 -8 0
v -5 -8 0
v 0 -9 0
v -1 -9 0
v -1 -8 0
v 0 -8 0
v -24 -10 0
v -25 -10 0
v -25 -9 0
v -24 -9 0
v -12 -10 0
v -13 -10 0
v -13 -9 0
v -12 -9 0
v -11 -10 0
v -12 -10 0
v -12 -9 0
v -11 -9 0
v -9 -10 0
v -10 -10 0
v -10 -9 0
v -9 -9 0
v -8 -10 0
v -9 -10 0
v -9 -9 0
v -8 -9 0
v -7 -10 0
v -8 -10 0
v -8 -9 0
v -7 -9 0
v -6 -10 0
v -7 -10 0
v -7 -9 0
v -6 -9 0
v -5 -10 0
v -6 -10 0
v -6 -9 0
v -5 -9 0
v 0 -10 0
v -1 -10 0
v -1 -9 0
v 0 -9 0
v -24 -11 0
v -25 -11 0
v -25 -10 0
v -24 -10 0
v -12 -11 0
v -13 -11 0
v -13 -10 0
v -12 -10 0
v -11 -11 0
v -12 -11 0
v -12 -10 0
v -11 -10 0
v -9 -11 0
v -10 -11 0
v -10 -10 0
v -9 -10 0
v -8 -11 0
v -9 -11 0
v -9 -10 0
v -8 -10 0
v -7 -11 0
v -8 -11 0
v -8 -10 0
v -7 -10 0
v -6 -11 0
v -7 -11 0
v -7 -10 0
v -6 -10 0
v -5 -11 0
v -6 -11 0
v -6 -10 0
v -5 -10 0
v 0 -11 0
v -1 -11 0
v -1 -10 0
v 0 -10 0
v -24 -12 0
v -25 -12 0
v -25 -11 0
v -24 -11 0
v -12 -12 0
v -13 -12 0
v -13 -11 0
v -12 -11 0
v -11 -12 0
v -12 -12 0
v -12 -11 0
v -11 -11 0
v 0 -12 0
v -1 -12 0
v -1 -11 0
v 0 -11 0
v -24 -13 0
v -25 -13 0
v -25 -12 0
v -24 -12 0
v -20 -13 0
v -21 -13 0
v -21 -12 0
v -20 -12 0
v 0 -13 0
v -1 -13 0
v -1 -12 0
v 0 -12 0
v -24 -14 0
v -25 -14 0
v -25 -13 0
v -24 -13 0
v -17 -14 0
v -18 -14 0
v -18 -13 0
v -17 -13 0
v -16 -14 0
v -17 -14 0
v -17 -13 0
v -16 -13 0
v 0 -14 0
v -1 -14 0
v -1 -13 0
v 0 -13 0
v -24 -15 0
v -25 -15 0
v -25 -14 0
v -24 -14 0
v -17 -15 0
v -18 -15 0
v -18 -14 0
v -17 -14 0
v -16 -15 0
v -17 -15 0
v -17 -14 0
v -16 -14 0
v 0 -15 0
v -1 -15 0
v -1 -14 0
v 0 -14 0
v -24 -16 0
v -25 -16 0
v -25 -15 0
v -24 -15 0
v 0 -16 0
v -1 -16 0
v -1 -15 0
v 0 -15 0
v -24 -19 0
v -25 -19 0
v -25 -18 0
v -24 -18 0
v 0 -19 0
v -1 -19 0
v -1 -18 0
v 0 -18 0
v -24 -20 0
v -25 -20 0
v -25 -19 0
v -24 -19 0
v -6 -20 0
v -7 -20 0
v -7 -19 0
v -6 -19 0
v -5 -20 0
v -6 -20 0
v -6 -19 0
v -5 -19 0
v 0 -20 0
v -1 -20 0
v -1 -19 0
v 0 -19 0
v -24 -21 0
v -25 -21 0
v -25 -20 0
v -24 -20 0
v -6 -21 0
v -7 -21 0
v -7 -20 0
v -6 -20 0
v -5 -21 0
v -6 -21 0
v -6 -20 0
v -5 -20 0
v 0 -21 0
v -1 -21 0
v -1 -20 0
v 0 -20 0
v -24 -22 0
v -25 -22 0
v -25 -21 0
v -24 -21 0
v -21 -22 0
v -22 -22 0
v -22 -21 0
v -21 -21 0
v -20 -22 0
v -21 -22 0
v -21 -21 0
v -20 -21 0
v 0 -22 0
v -1 -22 0
v -1 -21 0
v 0 -21 0
v -24 -23 0
v -25 -23 0
v -25 -22 0
v -24 -22 0
v -21 -23 0
v -22 -23 0
v -22 -22 0
v -21 -22 0
v -20 -23 0
v -21 -23 0
v -21 -22 0
v -20 -22 0
v 0 -23 0
v -1 -23 0
v -1 -22 0
v 0 -22 0
v -24 -24 0
v -25 -24 0
v -25 -23 0
v -24 -23 0
v 0 -24 0
v -1 -24 0
v -1 -23 0
v 0 -23 0
v -24 -25 0
v -25 -25 0
v -25 -24 0
v -24 -24 0
v -23 -25 0
v -24 -25 0
v -24 -24 0
v -23 -24 0
v -22 -25 0
v -23 -25 0
v -23 -24 0
v -22 -24 0
v -21 -25 0
v -22 -25 0
v -22 -24 0
v -21 -24 0
v -20 -25 0
v -21 -25 0
v -21 -24 0
v -20 -24 0
v -19 -25 0
v -20 -25 0
v -20 -24 0
v -19 -24 0
v -18 -25 0
v -19 -25 0
v -19 -24 0
v -18 -24 0
v -17 -25 0
v -18 -25 0
v -18 -24 0
v -17 -24 0
v -16 -25 0
v -17 -25 0
v -17 -24 0
v -16 -24 0
v -15 -25 0
v -16 -25 0
v -16 -24 0
v -15 -24 0
v -14 -25 0
v -15 -25 0
v -15 -24 0
v -14 -24 0
v -13 -25 0
v -14 -25 0
v -14 -24 0
v -13 -24 0
v -12 -25 0
v -13 -25 0
v -13 -24 0
v -12 -24 0
v -11 -25 0
v -12 -25 0
v -12 -24 0
v -11 -24 0
v -10 -25 0
v -11 -25 0
v -11 -24 0
v -10 -24 0
v -9 -25 0
v -10 -25 0
v -10 -24 0
v -9 -24 0
v -8 -25 0
v -9 -25 0
v -9 -24 0
v -8 -24 0
v -7 -25 0
v -8 -25 0
v -8 -24 0
v -7 -24 0
v -6 -25 0
v -7 -25 0
v -7 -24 0
v -6 -24 0
v -5 -25 0
v -6 -25 0
v -6 -24 0
v -5 -24 0
v -4 -25 0
v -5 -25 0
v -5 -24 0
v -4 -24 0
v -3 -25 0
v -4 -25 0
v -4 -24 0
v -3 -24 0
v -2 -25 0
v -3 -25 0
v -3 -24 0
v -2 -24 0
v -1 -25 0
v -2 -25 0
v -2 -24 0
v -1 -24 0
v 0 -25 0
v -1 -25 0
v -1 -24 0
v 0 -24 0

# Texture cooridinates (Count = 96)
vt 0.075 0.6111111
vt 0.1 0.6111111
vt 0.1 0.6388889
vt 0.075 0.6388889
vt 0.05 0.5555556
vt 0.075 0.5555556
vt 0.075 0.5833334
vt 0.05 0.5833334
vt 0 0.5277778
vt 0.025 0.5277778
vt 0.025 0.5555556
vt 0 0.5555556
vt 0.05 0.5277778
vt 0.025 0.6111111
vt 0.05 0.6111111
vt 0.05 0.6388889
vt 0.025 0.6388889
vt 0.1 0.5833334
vt 0.15 0.5277778
vt 0.175 0.5277778
vt 0.175 0.5555556
vt 0.15 0.5555556
vt 0.125 0.5277778
vt 0.125 0.5555556
vt 0.15 0.5
vt 0.175 0.5
vt 0.125 0.5
vt 0.25 0.6666666
vt 0.275 0.6666666
vt 0.275 0.6944444
vt 0.25 0.6944444
vt 0.225 0.6666666
vt 0.225 0.6944444
vt 0.25 0.9722222
vt 0.275 0.9722222
vt 0.275 1
vt 0.25 1
vt 0.225 0.9722222
vt 0.225 1
vt 0.2 0.9722222
vt 0.2 1
vt 0.175 0.9722222
vt 0.175 1
vt 0.15 0.9722222
vt 0.15 1
vt 0.25 0.6388889
vt 0.275 0.6388889
vt 0.225 0.6388889
vt 0.25 0.9444444
vt 0.275 0.9444444
vt 0.225 0.9444444
vt 0.2 0.9444444
vt 0.175 0.9444444
vt 0.15 0.9444444
vt 0.25 0.9166667
vt 0.275 0.9166667
vt 0.225 0.9166667
vt 0.2 0.9166667
vt 0.175 0.9166667
vt 0.15 0.9166667
vt 0.35 0.8333333
vt 0.375 0.8333333
vt 0.375 0.8611111
vt 0.35 0.8611111
vt 0.325 0.8333333
vt 0.325 0.8611111
vt 0.25 0.8888889
vt 0.275 0.8888889
vt 0.225 0.8888889
vt 0.2 0.8888889
vt 0.175 0.8888889
vt 0.15 0.8888889
vt 0.35 0.8055556
vt 0.375 0.8055556
vt 0.325 0.8055556
vt 0.25 0.8611111
vt 0.275 0.8611111
vt 0.225 0.8611111
vt 0.2 0.8611111
vt 0.175 0.8611111
vt 0.15 0.8611111
vt 0.35 0.7777778
vt 0.375 0.7777778
vt 0.325 0.7777778
vt 0.175 0.8333333
vt 0.2 0.8333333
vt 0.025 0.5833334
vt 0 0.5833334
vt 0 0.6111111
vt 0.125 0.9444444
vt 0.125 0.9722222
vt 0.1 0.9444444
vt 0.1 0.9722222
vt 0.125 0.9166667
vt 0.1 0.9166667
vt 0.1 0.5555556

# Normal
vn 0 0 -1

# Mesh description
g Overworld_mesh_0002

# Faces
f 1/1/1 2/2/1 3/3/1 4/4/1
f 5/5/1 6/6/1 7/7/1 8/8/1
f 9/5/1 10/6/1 11/7/1 12/8/1
f 13/5/1 14/6/1 15/7/1 16/8/1
f 17/5/1 18/6/1 19/7/1 20/8/1
f 21/5/1 22/6/1 23/7/1 24/8/1
f 25/5/1 26/6/1 27/7/1 28/8/1
f 29/9/1 30/10/1 31/11/1 32/12/1
f 33/10/1 34/13/1 35/5/1 36/11/1
f 37/5/1 38/6/1 39/7/1 40/8/1
f 41/5/1 42/6/1 43/7/1 44/8/1
f 45/5/1 46/6/1 47/7/1 48/8/1
f 49/5/1 50/6/1 51/7/1 52/8/1
f 53/5/1 54/6/1 55/7/1 56/8/1
f 57/5/1 58/6/1 59/7/1 60/8/1
f 61/5/1 62/6/1 63/7/1 64/8/1
f 65/5/1 66/6/1 67/7/1 68/8/1
f 69/5/1 70/6/1 71/7/1 72/8/1
f 73/5/1 74/6/1 75/7/1 76/8/1
f 77/5/1 78/6/1 79/7/1 80/8/1
f 81/5/1 82/6/1 83/7/1 84/8/1
f 85/5/1 86/6/1 87/7/1 88/8/1
f 89/14/1 90/15/1 91/16/1 92/17/1
f 93/7/1 94/18/1 95/2/1 96/1/1
f 97/7/1 98/18/1 99/2/1 100/1/1
f 101/7/1 102/18/1 103/2/1 104/1/1
f 105/7/1 106/18/1 107/2/1 108/1/1
f 109/7/1 110/18/1 111/2/1 112/1/1
f 113/7/1 114/18/1 115/2/1 116/1/1
f 117/7/1 118/18/1 119/2/1 120/1/1
f 121/19/1 122/20/1 123/21/1 124/22/1
f 125/23/1 126/19/1 127/22/1 128/24/1
f 129/7/1 130/18/1 131/2/1 132/1/1
f 133/7/1 134/18/1 135/2/1 136/1/1
f 137/25/1 138/26/1 139/20/1 140/19/1
f 141/27/1 142/25/1 143/19/1 144/23/1
f 145/7/1 146/18/1 147/2/1 148/1/1
f 149/7/1 150/18/1 151/2/1 152/1/1
f 153/28/1 154/29/1 155/30/1 156/31/1
f 157/32/1 158/28/1 159/31/1 160/33/1
f 161/34/1 162/35/1 163/36/1 164/37/1
f 165/38/1 166/34/1 167/37/1 168/39/1
f 169/40/1 170/38/1 171/39/1 172/41/1
f 173/42/1 174/40/1 175/41/1 176/43/1
f 177/44/1 178/42/1 179/43/1 180/45/1
f 181/7/1 182/18/1 183/2/1 184/1/1
f 185/7/1 186/18/1 187/2/1 188/1/1
f 189/46/1 190/47/1 191/29/1 192/28/1
f 193/48/1 194/46/1 195/28/1 196/32/1
f 197/49/1 198/50/1 199/35/1 200/34/1
f 201/51/1 202/49/1 203/34/1 204/38/1
f 205/52/1 206/51/1 207/38/1 208/40/1
f 209/53/1 210/52/1 211/40/1 212/42/1
f 213/54/1 214/53/1 215/42/1 216/44/1
f 217/7/1 218/18/1 219/2/1 220/1/1
f 221/7/1 222/18/1 223/2/1 224/1/1
f 225/55/1 226/56/1 227/50/1 228/49/1
f 229/57/1 230/55/1 231/49/1 232/51/1
f 233/58/1 234/57/1 235/51/1 236/52/1
f 237/59/1 238/58/1 239/52/1 240/53/1
f 241/60/1 242/59/1 243/53/1 244/54/1
f 245/7/1 246/18/1 247/2/1 248/1/1
f 249/7/1 250/18/1 251/2/1 252/1/1
f 253/61/1 254/62/1 255/63/1 256/64/1
f 257/65/1 258/61/1 259/64/1 260/66/1
f 261/67/1 262/68/1 263/56/1 264/55/1
f 265/69/1 266/67/1 267/55/1 268/57/1
f 269/70/1 270/69/1 271/57/1 272/58/1
f 273/71/1 274/70/1 275/58/1 276/59/1
f 277/72/1 278/71/1 279/59/1 280/60/1
f 281/7/1 282/18/1 283/2/1 284/1/1
f 285/7/1 286/18/1 287/2/1 288/1/1
f 289/73/1 290/74/1 291/62/1 292/61/1
f 293/75/1 294/73/1 295/61/1 296/65/1
f 297/76/1 298/77/1 299/68/1 300/67/1
f 301/78/1 302/76/1 303/67/1 304/69/1
f 305/79/1 306/78/1 307/69/1 308/70/1
f 309/80/1 310/79/1 311/70/1 312/71/1
f 313/81/1 314/80/1 315/71/1 316/72/1
f 317/7/1 318/18/1 319/2/1 320/1/1
f 321/7/1 322/18/1 323/2/1 324/1/1
f 325/82/1 326/83/1 327/74/1 328/73/1
f 329/84/1 330/82/1 331/73/1 332/75/1
f 333/7/1 334/18/1 335/2/1 336/1/1
f 337/7/1 338/18/1 339/2/1 340/1/1
f 341/85/1 342/86/1 343/79/1 344/80/1
f 345/7/1 346/18/1 347/2/1 348/1/1
f 349/7/1 350/18/1 351/2/1 352/1/1
f 353/19/1 354/20/1 355/21/1 356/22/1
f 357/23/1 358/19/1 359/22/1 360/24/1
f 361/7/1 362/18/1 363/2/1 364/1/1
f 365/7/1 366/18/1 367/2/1 368/1/1
f 369/25/1 370/26/1 371/20/1 372/19/1
f 373/27/1 374/25/1 375/19/1 376/23/1
f 377/7/1 378/18/1 379/2/1 380/1/1
f 381/12/1 382/11/1 383/87/1 384/88/1
f 385/12/1 386/11/1 387/87/1 388/88/1
f 389/88/1 390/87/1 391/14/1 392/89/1
f 393/88/1 394/87/1 395/14/1 396/89/1
f 397/7/1 398/18/1 399/2/1 400/1/1
f 401/90/1 402/54/1 403/44/1 404/91/1
f 405/92/1 406/90/1 407/91/1 408/93/1
f 409/7/1 410/18/1 411/2/1 412/1/1
f 413/7/1 414/18/1 415/2/1 416/1/1
f 417/94/1 418/60/1 419/54/1 420/90/1
f 421/95/1 422/94/1 423/90/1 424/92/1
f 425/7/1 426/18/1 427/2/1 428/1/1
f 429/7/1 430/18/1 431/2/1 432/1/1
f 433/19/1 434/20/1 435/21/1 436/22/1
f 437/23/1 438/19/1 439/22/1 440/24/1
f 441/7/1 442/18/1 443/2/1 444/1/1
f 445/7/1 446/18/1 447/2/1 448/1/1
f 449/25/1 450/26/1 451/20/1 452/19/1
f 453/27/1 454/25/1 455/19/1 456/23/1
f 457/7/1 458/18/1 459/2/1 460/1/1
f 461/7/1 462/18/1 463/2/1 464/1/1
f 465/7/1 466/18/1 467/2/1 468/1/1
f 469/6/1 470/96/1 471/18/1 472/7/1
f 473/5/1 474/6/1 475/7/1 476/8/1
f 477/5/1 478/6/1 479/7/1 480/8/1
f 481/5/1 482/6/1 483/7/1 484/8/1
f 485/5/1 486/6/1 487/7/1 488/8/1
f 489/5/1 490/6/1 491/7/1 492/8/1
f 493/5/1 494/6/1 495/7/1 496/8/1
f 497/5/1 498/6/1 499/7/1 500/8/1
f 501/5/1 502/6/1 503/7/1 504/8/1
f 505/5/1 506/6/1 507/7/1 508/8/1
f 509/5/1 510/6/1 511/7/1 512/8/1
f 513/5/1 514/6/1 515/7/1 516/8/1
f 517/5/1 518/6/1 519/7/1 520/8/1
f 521/5/1 522/6/1 523/7/1 524/8/1
f 525/5/1 526/6/1 527/7/1 528/8/1
f 529/5/1 530/6/1 531/7/1 532/8/1
f 533/5/1 534/6/1 535/7/1 536/8/1
f 537/5/1 538/6/1 539/7/1 540/8/1
f 541/5/1 542/6/1 543/7/1 544/8/1
f 545/5/1 546/6/1 547/7/1 548/8/1
f 549/5/1 550/6/1 551/7/1 552/8/1
f 553/5/1 554/6/1 555/7/1 556/8/1
f 557/5/1 558/6/1 559/7/1 560/8/1
f 561/5/1 562/6/1 563/7/1 564/8/1
f 565/11/1 566/5/1 567/8/1 568/87/1

